<?xml version="1.0" encoding="utf-8"?>
<!-- Generator: Adobe Illustrator 18.0.0, SVG Export Plug-In . SVG Version: 6.00 Build 0)  -->
<!DOCTYPE svg PUBLIC "-//W3C//DTD SVG 1.1//EN" "http://www.w3.org/Graphics/SVG/1.1/DTD/svg11.dtd">
<svg version="1.1" id="Layer_1" xmlns="http://www.w3.org/2000/svg" xmlns:xlink="http://www.w3.org/1999/xlink" x="0px" y="0px"
	 viewBox="0 0 77.7 19.6" enable-background="new 0 0 77.7 19.6" xml:space="preserve">
<g>
	<g>
		<g>
			<path d="M29.5,5.1V9h2.9v2.3h-2.9v5.2h4.3v2.3h-7.2V2.9h6.9v2.3H29.5z"/>
		</g>
		<g>
			<path d="M38.3,12.4c-0.2,0-1.3,0-1.5,0v6.4H34V2.9h4.4c2.7,0,4,2,4,4.5C42.4,10.7,40.4,12.4,38.3,12.4z M37.3,9.9
				c1.8,0,2.4-0.2,2.4-2.5c0-1.3-0.3-2.3-1.4-2.3h-1.5v4.8H37.3z"/>
		</g>
		<g>
			<path d="M47.6,7.3V6.6c0-1.1-0.6-1.7-1.3-1.7c-0.7,0-1.3,0.5-1.3,1.2c0,0.7,0.1,1.2,0.8,2l2.8,3.2c1.1,1.3,1.8,2.2,1.8,4
				c0,2.3-1.9,3.6-4.2,3.6c-2.3,0-4.1-1.3-4.1-3.6v-1.7H45v1.5c0,1,0.5,1.5,1.3,1.5c0.7,0,1.3-0.5,1.3-1.5c0-0.8-0.3-1.5-0.9-2.2
				l-2.4-2.4c-1.5-1.8-2.1-2.3-2.1-4.4c0-2.2,1.7-3.5,4.2-3.5c2.4,0,4.1,1.4,4.1,3.5v1.1H47.6z"/>
		</g>
		<g>
			<path d="M53.6,18.7h-2.8V2.9h2.8V18.7z"/>
		</g>
		<g>
			<path d="M60.8,16.5v2.3h-6.6V2.9H57v13.6H60.8z"/>
		</g>
		<g>
			<path d="M68.7,6.2v9.2c0,1.6-1.3,3.6-4.1,3.6c-3.1,0-4.2-2-4.2-3.6V6.2c0-1.6,1.1-3.5,4.2-3.5C67.5,2.7,68.7,4.6,68.7,6.2z
				 M65.9,6.2c0-0.5-0.5-1.3-1.3-1.3c-1,0-1.4,0.9-1.4,1.3v9.1c0,0.5,0.4,1.4,1.4,1.4c0.8,0,1.3-0.9,1.3-1.4V6.2z"/>
		</g>
		<g>
			<path d="M77.7,2.9v15.9h-2.8l-2.8-9.1h0v9.1h-2.8V2.9h3l2.6,8.8h0V2.9H77.7z"/>
		</g>
	</g>
	<g>
		<path d="M8.7,0L0,8.7l5.6,10.9l12.1-1.9l1.9-12.1L8.7,0z M15.9,15.9l-9.2,1.5L2.5,9.1l6.6-6.6l1.8,0.9l-6.3,7.4l2.7,5.3l5.9-0.9
			l3.3-8.9l0.9,0.5L15.9,15.9z"/>
	</g>
</g>
</svg>
