<?xml version="1.0" encoding="utf-8"?>
<!-- Generator: Adobe Illustrator 18.0.0, SVG Export Plug-In . SVG Version: 6.00 Build 0)  -->
<!DOCTYPE svg PUBLIC "-//W3C//DTD SVG 1.1//EN" "http://www.w3.org/Graphics/SVG/1.1/DTD/svg11.dtd">
<svg version="1.1" id="Layer_1" xmlns="http://www.w3.org/2000/svg" xmlns:xlink="http://www.w3.org/1999/xlink" x="0px" y="0px"
	 viewBox="0 0 84.3 20.2" enable-background="new 0 0 84.3 20.2" xml:space="preserve">
<g>
	<g>
		<path d="M23.1,18.8l2.9-0.3V3l-4.7,0.2l-0.7,2.3l-0.8,0l0.3-3.4h13.4l0,3.5l-0.7,0.1l-0.5-2.4L27.7,3v15.5l3.1,0.3v0.8h-7.7V18.8z
			"/>
		<path d="M35.3,18.8l1.7-0.2V2.7L35,2.5V1.7l3.1-0.4l0.4,0.2l0,5.3l0,1.7c0.3-0.3,0.7-0.5,1.1-0.7c0.4-0.2,0.8-0.4,1.2-0.6
			c0.4-0.2,0.8-0.3,1.2-0.4c0.4-0.1,0.8-0.1,1.1-0.1c0.8,0,1.4,0.1,1.9,0.3c0.5,0.2,0.9,0.6,1.2,1c0.3,0.5,0.5,1.1,0.6,1.9
			s0.2,1.7,0.2,2.8v5.9l1.7,0.2v0.8l-5.2,0v-0.8l1.9-0.2v-5.2c0-1,0-1.8-0.1-2.5c-0.1-0.7-0.2-1.2-0.4-1.7c-0.2-0.4-0.5-0.7-0.9-1
			C43.6,8.1,43.1,8,42.5,8c-0.3,0-0.6,0-0.9,0.1c-0.3,0.1-0.7,0.1-1,0.2c-0.3,0.1-0.7,0.2-1,0.4c-0.3,0.2-0.6,0.3-0.9,0.5v9.4
			l1.8,0.2v0.8h-5.1V18.8z"/>
		<path d="M50.7,13.3c0-1,0.2-1.8,0.5-2.7c0.3-0.8,0.7-1.5,1.3-2.1c0.5-0.6,1.2-1.1,2-1.4c0.8-0.3,1.6-0.5,2.5-0.5
			c0.6,0,1.2,0.1,1.8,0.3s1,0.5,1.4,0.9c0.4,0.4,0.7,0.9,0.9,1.5c0.2,0.6,0.3,1.2,0.3,2c0,0.4,0,0.7,0,1s-0.1,0.6-0.1,0.8h-8.7v0.1
			c0,0.9,0.1,1.7,0.3,2.4c0.2,0.7,0.6,1.2,1,1.7s0.9,0.8,1.5,1c0.6,0.2,1.1,0.3,1.8,0.3c0.4,0,0.7,0,1.1-0.1c0.4,0,0.7-0.1,1-0.2
			c0.3-0.1,0.6-0.2,0.9-0.3s0.5-0.2,0.6-0.3l0.3,0.8c-0.2,0.2-0.5,0.4-0.8,0.5s-0.7,0.3-1.1,0.4c-0.4,0.1-0.8,0.2-1.3,0.2
			c-0.5,0.1-0.9,0.1-1.3,0.1c-0.9,0-1.7-0.2-2.4-0.5s-1.3-0.7-1.8-1.3c-0.5-0.6-0.8-1.2-1.1-2.1C50.8,15.2,50.7,14.3,50.7,13.3z
			 M59.5,12.1c0-0.5,0-0.9,0-1.4c0-0.4-0.1-0.8-0.2-1.2s-0.3-0.7-0.5-1c-0.2-0.3-0.5-0.5-0.8-0.7c-0.4-0.2-0.9-0.3-1.5-0.3
			c-0.5,0-1,0.1-1.5,0.3c-0.5,0.2-0.9,0.5-1.2,0.9s-0.7,0.9-0.9,1.4c-0.2,0.6-0.4,1.2-0.5,2H59.5z"/>
		<path d="M65.5,8.1h-1.8V7.4c0.3-0.1,0.6-0.1,0.8-0.1c0.2,0,0.4-0.1,0.6-0.1c0.1,0,0.3-0.1,0.4-0.2s0.2-0.2,0.3-0.3
			c0-0.1,0.1-0.3,0.2-0.5c0.1-0.2,0.1-0.5,0.2-0.8c0.1-0.3,0.1-0.5,0.1-0.8s0.1-0.5,0.1-0.6h0.9v3h4.2v1.1h-4.2v6.8
			c0,0.8,0,1.4,0.1,1.9c0,0.5,0.1,0.9,0.2,1.2c0.1,0.3,0.2,0.5,0.4,0.6c0.2,0.1,0.5,0.2,0.8,0.2c0.3,0,0.5,0,0.8-0.1
			s0.5-0.1,0.7-0.2c0.2-0.1,0.4-0.2,0.6-0.2c0.2-0.1,0.3-0.2,0.4-0.2l0.3,0.8c-0.2,0.2-0.4,0.4-0.7,0.5s-0.6,0.3-0.9,0.3
			c-0.3,0.1-0.6,0.2-1,0.2c-0.3,0-0.6,0.1-0.9,0.1c-0.4,0-0.8-0.1-1.1-0.2s-0.6-0.3-0.8-0.5c-0.2-0.3-0.4-0.6-0.5-1
			c-0.1-0.4-0.2-0.9-0.2-1.5V8.1z"/>
		<path d="M73.4,16c0-0.5,0.2-1,0.5-1.4c0.3-0.4,0.6-0.7,1-1c0.4-0.3,0.9-0.5,1.4-0.7s1.1-0.4,1.6-0.5c0.6-0.1,1.1-0.2,1.7-0.3
			s1.1-0.1,1.5-0.1v-1c0-0.6-0.1-1.2-0.2-1.6c-0.2-0.4-0.4-0.7-0.7-1c-0.3-0.2-0.6-0.4-1-0.5c-0.4-0.1-0.9-0.1-1.4-0.1
			c-0.3,0-0.6,0-0.9,0.1c-0.3,0.1-0.7,0.1-1,0.2c-0.3,0.1-0.6,0.2-0.9,0.3c-0.3,0.1-0.6,0.2-0.8,0.4l-0.3-0.8c0.3-0.2,0.6-0.4,1-0.6
			s0.8-0.3,1.2-0.4s0.8-0.2,1.2-0.3c0.4-0.1,0.7-0.1,1-0.1c0.6,0,1.2,0.1,1.7,0.2c0.5,0.1,1,0.3,1.4,0.6c0.4,0.3,0.7,0.7,1,1.3
			s0.3,1.2,0.3,2l0,7.9h1.5v0.6c-0.2,0.1-0.5,0.2-0.8,0.3c-0.3,0.1-0.7,0.1-1.1,0.1c-0.1,0-0.3,0-0.4,0c-0.1,0-0.2-0.1-0.3-0.1
			c-0.1-0.1-0.2-0.2-0.2-0.3c-0.1-0.1-0.1-0.3-0.1-0.6v-0.4c-0.2,0.2-0.4,0.5-0.7,0.7c-0.3,0.2-0.6,0.4-0.9,0.5s-0.7,0.2-1.1,0.3
			s-0.9,0.1-1.4,0.1c-0.5,0-1-0.1-1.5-0.2s-0.9-0.4-1.2-0.7c-0.4-0.3-0.6-0.7-0.8-1.2C73.5,17.2,73.4,16.7,73.4,16z M75.1,16.1
			c0,0.5,0.1,0.9,0.2,1.2s0.3,0.6,0.6,0.8c0.3,0.2,0.6,0.4,0.9,0.5c0.4,0.1,0.8,0.2,1.2,0.2c0.4,0,0.8,0,1.1-0.1
			c0.3-0.1,0.6-0.2,0.9-0.3s0.5-0.3,0.7-0.4c0.2-0.1,0.3-0.2,0.4-0.3c0-0.3,0-0.6,0-0.9s0-0.7,0-1.1s0-0.8,0-1.2c0-0.4,0-0.8,0-1.2
			c-0.4,0-0.8,0-1.3,0.1s-0.9,0.1-1.4,0.2c-0.5,0.1-0.9,0.2-1.3,0.4c-0.4,0.2-0.8,0.3-1.1,0.6c-0.3,0.2-0.6,0.5-0.8,0.8
			C75.2,15.3,75.1,15.7,75.1,16.1z"/>
	</g>
	<g>
		<g>
			<path d="M0.1,10.6c3.2,3.2,6.5,6.4,9.7,9.7c0-3.5,0-7,0-10.6C8.9,8.8,8,7.9,7,7c0.1,0.1,0,1.6,0,1.5c0,1.2,0,2.5,0,3.7
				s0,2.5,0,3.7c0,0-0.1,1.4,0,1.5c0.9,0.9,1.8,1.8,2.7,2.6c-0.1-0.1,0-1.6,0-1.5c0-1.2,0-2.5,0-3.7s0-2.5,0-3.7c0,0,0.1-1.4,0-1.5
				C6.5,6.4,3.3,3.2,0.1,0c0.1,0.1,0,1.6,0,1.5C0,2.8,0,4,0,5.3S0,7.8,0,9C0,9.1-0.1,10.4,0.1,10.6L0.1,10.6z"/>
		</g>
	</g>
</g>
</svg>
