<?xml version="1.0" encoding="utf-8"?>
<!-- Generator: Adobe Illustrator 18.0.0, SVG Export Plug-In . SVG Version: 6.00 Build 0)  -->
<!DOCTYPE svg PUBLIC "-//W3C//DTD SVG 1.1//EN" "http://www.w3.org/Graphics/SVG/1.1/DTD/svg11.dtd">
<svg version="1.1" id="Layer_1" xmlns="http://www.w3.org/2000/svg" xmlns:xlink="http://www.w3.org/1999/xlink" x="0px" y="0px"
	 viewBox="0 0 89.2 19.6" enable-background="new 0 0 89.2 19.6" xml:space="preserve">
<g>
	<g>
		<polygon points="58.3,0 30.2,0 27.5,0 0,0 0,8.8 21.4,8.8 21.4,5.3 4.9,5.3 4.9,3.5 27.5,3.5 30.2,3.5 40.5,3.5 40.5,16 4.9,16 
			4.9,14.2 21.4,14.2 21.4,10.7 0,10.7 0,19.5 40.5,19.5 45.2,19.5 45.4,19.5 45.4,3.5 58.3,3.5 		"/>
	</g>
	<g>
		<polygon points="83.5,13.4 54.2,13.4 48.5,18.8 53.9,19.6 56.7,16.9 80.9,16.9 83.8,19.6 89.2,18.8 		"/>
	</g>
	<g>
		<path d="M81.4,11.5L69.7,0H68L56.3,11.5H81.4z M65.9,8l2.9-2.9L71.8,8H65.9z"/>
	</g>
</g>
</svg>
