<?xml version="1.0" encoding="utf-8"?>
<!-- Generator: Adobe Illustrator 18.0.0, SVG Export Plug-In . SVG Version: 6.00 Build 0)  -->
<!DOCTYPE svg PUBLIC "-//W3C//DTD SVG 1.1//EN" "http://www.w3.org/Graphics/SVG/1.1/DTD/svg11.dtd">
<svg version="1.1" id="Layer_1" xmlns="http://www.w3.org/2000/svg" xmlns:xlink="http://www.w3.org/1999/xlink" x="0px" y="0px"
	 viewBox="0 0 63.5 20.6" enable-background="new 0 0 63.5 20.6" xml:space="preserve">
<g>
	<g>
		<g>
			<path d="M2.7,18.9c0,0.3,0,0.5,0.1,0.6c0.1,0.1,0.2,0.2,0.2,0.2c0.1,0.1,0.2,0.1,0.4,0v0.7H0v-0.7c0.2,0.1,0.3,0.1,0.4,0
				c0.1,0,0.1-0.1,0.2-0.2c0.1-0.1,0.1-0.3,0.1-0.6V1.5c0-0.3,0-0.5-0.1-0.6C0.5,0.8,0.5,0.7,0.4,0.7c-0.1,0-0.2,0-0.4,0V0h3.5v0.7
				c-0.2,0-0.3,0-0.4,0C3,0.7,2.9,0.8,2.8,0.9C2.8,1.1,2.7,1.3,2.7,1.5V18.9z"/>
		</g>
		<g>
			<path d="M22.9,10.3c0,1.2,0,2.3,0,3.2c0,0.9,0,1.7-0.1,2.4c0,0.7-0.1,1.2-0.3,1.7c-0.1,0.5-0.3,0.9-0.6,1.2
				c-0.4,0.6-0.9,1-1.5,1.3c-0.6,0.3-1.2,0.4-1.8,0.4c-0.6,0-1.2-0.1-1.8-0.4c-0.6-0.3-1.1-0.7-1.5-1.3c-0.2-0.4-0.4-0.8-0.6-1.2
				c-0.1-0.5-0.2-1-0.3-1.7c0-0.7-0.1-1.5-0.1-2.4c0-0.9,0-2,0-3.2c0-1.7,0-3,0-4.1c0-1.1,0.1-2,0.3-2.7c0.1-0.6,0.3-1.1,0.6-1.6
				c0.3-0.5,0.7-0.8,1.1-1.1C17.3,0.2,18.1,0,18.8,0c0.4,0,0.7,0.1,1.1,0.2c0.4,0.1,0.7,0.3,1.1,0.5c0.4,0.3,0.8,0.7,1.1,1.1
				c0.3,0.5,0.5,1,0.6,1.6c0.1,0.7,0.2,1.6,0.2,2.7C22.9,7.2,22.9,8.6,22.9,10.3z M21,16.6c0-0.8,0-1.8,0-2.9c0-1.1,0-2.3,0-3.5
				c0-1.2,0-2.3,0-3.4c0-1.1,0-2.1,0-2.9c0-1.2-0.2-2-0.6-2.5c-0.4-0.5-0.9-0.7-1.5-0.7c-0.6,0-1.1,0.2-1.5,0.7
				c-0.4,0.5-0.6,1.3-0.6,2.5v6.3v6.4c0,1.2,0.2,2.1,0.6,2.6c0.4,0.5,0.9,0.8,1.6,0.8s1.3-0.3,1.6-0.8C20.8,18.7,21,17.8,21,16.6z"
				/>
		</g>
		<g>
			<path d="M42.7,0v3h-0.7c0-0.5-0.1-0.9-0.2-1.2c-0.1-0.3-0.3-0.6-0.5-0.8c-0.2-0.3-0.5-0.4-0.9-0.4h-1.2v18.3c0,0.3,0,0.5,0.1,0.6
				c0.1,0.1,0.2,0.2,0.3,0.2c0.1,0.1,0.2,0.1,0.3,0v0.7h-3.5v-0.7c0.2,0.1,0.3,0.1,0.4,0c0.1,0,0.2-0.1,0.3-0.2
				c0.1-0.1,0.1-0.3,0.1-0.6V0.6h-1.2c-0.4,0-0.7,0.1-0.9,0.4c-0.2,0.3-0.4,0.5-0.4,0.8c-0.1,0.3-0.2,0.7-0.2,1.2h-0.8V0H42.7z"/>
		</g>
		<g>
			<path d="M62.4,18.9c0,0.3,0.1,0.5,0.2,0.6c0.1,0.1,0.3,0.2,0.4,0.2c0.2,0,0.3,0,0.5,0v0.7h-4.2v-0.7c0.2,0,0.3,0,0.5,0
				c0.1,0,0.2-0.1,0.3-0.2c0.1-0.1,0.1-0.3,0.1-0.6c0,0-0.1-0.4-0.2-1c-0.1-0.6-0.2-1.5-0.4-2.5h-3.7c-0.2,1-0.3,1.9-0.4,2.5
				c-0.1,0.6-0.2,1-0.2,1c-0.1,0.3-0.1,0.5,0,0.6c0.1,0.1,0.1,0.2,0.2,0.2c0.1,0,0.3,0,0.5,0v0.7h-2.7v-0.7c0.2,0,0.3,0,0.5,0
				c0.2,0,0.3-0.1,0.4-0.2c0.1-0.1,0.2-0.3,0.3-0.6c0,0,0-0.3,0.1-0.8c0.1-0.5,0.2-1.3,0.4-2.1c0.2-0.9,0.3-1.9,0.6-3
				c0.2-1.1,0.4-2.3,0.6-3.5l1.7-9.4h1.5c0.6,3.5,1,6.6,1.5,9.3c0.2,1.2,0.4,2.3,0.5,3.5c0.2,1.1,0.3,2.1,0.5,3
				c0.1,0.9,0.3,1.6,0.4,2.2C62.3,18.6,62.4,18.9,62.4,18.9z M56,14.6h3.5c-0.1-0.8-0.2-1.6-0.4-2.5c-0.1-0.9-0.3-1.8-0.4-2.7
				c-0.1-0.9-0.3-1.8-0.4-2.6c-0.1-0.9-0.3-1.6-0.4-2.4c-0.2,0.7-0.3,1.5-0.5,2.4c-0.2,0.9-0.3,1.7-0.5,2.6
				c-0.2,0.9-0.3,1.8-0.5,2.7C56.3,13,56.2,13.8,56,14.6z"/>
		</g>
	</g>
	<g>
		<g>
			<path fill="#231F20" d="M9.7,12.3c-1.2,0-2.2-1-2.2-2.2s1-2.2,2.2-2.2c1.2,0,2.2,1,2.2,2.2S10.9,12.3,9.7,12.3z M9.7,9
				C9,9,8.5,9.5,8.5,10.1c0,0.6,0.5,1.1,1.1,1.1c0.6,0,1.1-0.5,1.1-1.1C10.8,9.5,10.3,9,9.7,9z"/>
		</g>
	</g>
	<g>
		<g>
			<path fill="#231F20" d="M29.7,12.3c-1.2,0-2.2-1-2.2-2.2s1-2.2,2.2-2.2s2.2,1,2.2,2.2S30.9,12.3,29.7,12.3z M29.7,9
				c-0.6,0-1.1,0.5-1.1,1.1c0,0.6,0.5,1.1,1.1,1.1s1.1-0.5,1.1-1.1C30.8,9.5,30.3,9,29.7,9z"/>
		</g>
	</g>
	<g>
		<g>
			<path fill="#231F20" d="M48.1,12.3c-1.2,0-2.2-1-2.2-2.2s1-2.2,2.2-2.2c1.2,0,2.2,1,2.2,2.2S49.3,12.3,48.1,12.3z M48.1,9
				C47.5,9,47,9.5,47,10.1c0,0.6,0.5,1.1,1.1,1.1c0.6,0,1.1-0.5,1.1-1.1C49.2,9.5,48.7,9,48.1,9z"/>
		</g>
	</g>
</g>
</svg>
