<?xml version="1.0" encoding="utf-8"?>
<!-- Generator: Adobe Illustrator 18.0.0, SVG Export Plug-In . SVG Version: 6.00 Build 0)  -->
<!DOCTYPE svg PUBLIC "-//W3C//DTD SVG 1.1//EN" "http://www.w3.org/Graphics/SVG/1.1/DTD/svg11.dtd">
<svg version="1.1" id="Layer_1" xmlns="http://www.w3.org/2000/svg" xmlns:xlink="http://www.w3.org/1999/xlink" x="0px" y="0px"
	 viewBox="0 0 54.9 21.5" enable-background="new 0 0 54.9 21.5" xml:space="preserve">
<g>
	<g>
		<path d="M0,19.3c0.3,0,0.6,0,0.8-0.1c0.2,0,0.4-0.1,0.6-0.3c0.2-0.2,0.3-0.4,0.4-0.7C1.8,18,1.9,17.6,1.9,17V6.9
			c0-0.2,0-0.5,0-0.7c0-0.2,0-0.5,0-0.7c0-0.2,0-0.4,0-0.6c0-0.2,0-0.3,0-0.4L0,4.6v-2l7.3-0.1c1,0,2,0.1,2.8,0.3
			c0.8,0.2,1.5,0.5,2.1,0.8c0.6,0.4,1,0.8,1.4,1.4c0.3,0.6,0.5,1.2,0.5,2c0,0.4-0.1,0.9-0.2,1.2c-0.1,0.4-0.4,0.7-0.7,1.1
			c-0.3,0.4-0.7,0.7-1.2,1s-1,0.5-1.7,0.7v0c0.9,0.1,1.6,0.4,2.3,0.7s1.2,0.7,1.6,1.1s0.7,0.9,0.9,1.4s0.3,1,0.3,1.6
			c0,0.9-0.2,1.6-0.5,2.3c-0.3,0.7-0.8,1.2-1.3,1.6c-0.6,0.4-1.3,0.8-2,1C10.8,21,10,21.1,9,21.1H0V19.3z M5.6,19.2
			c0.5,0,0.9,0,1.3,0c0.4,0,0.8,0,1.3,0c0.5,0,1-0.1,1.4-0.3c0.4-0.2,0.7-0.4,1-0.7c0.2-0.3,0.4-0.7,0.6-1.1
			c0.1-0.4,0.2-0.9,0.2-1.4c0-0.6-0.1-1.1-0.3-1.5s-0.5-0.7-0.8-1s-0.7-0.4-1.1-0.5c-0.4-0.1-0.8-0.2-1.2-0.2c-0.8,0-1.6,0-2.1,0
			v4.3c0,0.2,0,0.5,0,0.7c0,0.2,0,0.4,0,0.7c0,0.2,0,0.4,0,0.6C5.6,18.9,5.6,19.1,5.6,19.2z M7.1,10.6c0.6,0,1-0.1,1.4-0.3
			c0.4-0.2,0.7-0.4,0.9-0.8c0.2-0.3,0.4-0.7,0.5-1.1C10,8,10.1,7.6,10.1,7.1c0-0.5-0.1-1-0.3-1.3C9.7,5.4,9.4,5.1,9.2,4.9
			C8.9,4.7,8.6,4.5,8.3,4.5c-0.3-0.1-0.7-0.1-1-0.1c-0.2,0-0.4,0-0.6,0.1c-0.2,0-0.4,0.1-0.5,0.3S5.9,5.1,5.8,5.4
			C5.8,5.6,5.7,6,5.7,6.6v4.1L7.1,10.6z"/>
		<path d="M29.6,13.9l-8.7,0.2c0,0.7,0.1,1.4,0.2,2c0.1,0.6,0.3,1.1,0.6,1.6c0.3,0.4,0.7,0.8,1.2,1c0.5,0.3,1.1,0.4,1.7,0.4
			c0.3,0,0.6,0,0.9-0.1c0.3-0.1,0.7-0.2,1-0.3c0.3-0.2,0.7-0.4,1-0.6c0.3-0.3,0.7-0.6,1-0.9l1.2,1.1c-0.5,0.7-1,1.2-1.5,1.7
			c-0.5,0.4-1.1,0.8-1.6,1c-0.5,0.2-1.1,0.4-1.6,0.5c-0.5,0.1-1,0.1-1.5,0.1c-1,0-1.9-0.2-2.7-0.5c-0.8-0.3-1.5-0.8-2.1-1.4
			c-0.6-0.6-1-1.3-1.3-2.2c-0.3-0.9-0.5-1.8-0.5-2.9c0-0.9,0.2-1.8,0.5-2.7c0.3-0.8,0.8-1.6,1.3-2.3c0.6-0.7,1.3-1.2,2.1-1.6
			c0.8-0.4,1.7-0.6,2.7-0.6c0.5,0,1,0,1.5,0.1c0.5,0.1,1,0.2,1.4,0.4c0.4,0.2,0.9,0.5,1.2,0.8s0.7,0.7,1,1.2
			c0.3,0.5,0.5,1.1,0.7,1.7C29.5,12.3,29.6,13.1,29.6,13.9z M23.8,9.3c-0.4,0-0.7,0.1-1,0.2c-0.3,0.1-0.6,0.3-0.8,0.6
			s-0.4,0.6-0.5,0.9s-0.2,0.8-0.3,1.2H26c0-0.5-0.1-1-0.2-1.4c-0.1-0.4-0.3-0.7-0.5-0.9c-0.2-0.2-0.4-0.4-0.7-0.5S24.1,9.3,23.8,9.3
			z"/>
		<path d="M30.9,7.8c0.5,0,0.9-0.1,1.3-0.3c0.4-0.2,0.8-0.5,1.1-0.8C33.6,6.3,33.8,6,34,5.6c0.2-0.4,0.4-0.8,0.5-1.1h2l0,3.3h3.4v2
			l-3.4,0.1c0,1.3,0,2.3,0,3.1c0,0.8,0,1.5,0,2c0,0.5,0,0.9,0,1.1c0,0.2,0,0.3,0,0.4c0,0.3,0,0.6,0.1,0.9c0,0.3,0.1,0.6,0.2,0.8
			c0.1,0.2,0.3,0.4,0.5,0.6C37.4,19,37.7,19,38,19c0.1,0,0.3,0,0.4-0.1s0.4-0.1,0.6-0.2c0.2-0.1,0.4-0.3,0.7-0.5
			c0.2-0.2,0.5-0.5,0.7-0.9l1.3,1.2c-0.5,0.7-1,1.3-1.4,1.6c-0.5,0.4-0.9,0.7-1.4,0.9c-0.4,0.2-0.8,0.3-1.2,0.3
			c-0.4,0-0.7,0.1-0.9,0.1c-0.3,0-0.6,0-0.9-0.1c-0.3,0-0.6-0.1-0.9-0.3c-0.3-0.1-0.6-0.3-0.9-0.5c-0.3-0.2-0.5-0.5-0.7-0.9
			s-0.4-0.8-0.5-1.4s-0.2-1.2-0.2-1.9l0-6.4l-1.8,0V7.8z"/>
		<path d="M42.8,10.9c0-0.5,0.1-1,0.4-1.4c0.3-0.4,0.7-0.8,1.2-1.1s1.1-0.5,1.8-0.7c0.7-0.2,1.4-0.3,2.2-0.3s1.5,0.1,2.1,0.3
			C51,7.9,51.6,8.2,52,8.6c0.4,0.4,0.7,0.9,1,1.6s0.3,1.4,0.3,2.3c0,0.4,0,0.8,0,1.2c0,0.3,0,0.7,0,1s0,0.6,0,1c0,0.3,0,0.7,0,1.2
			c0,0.1,0,0.3,0,0.5c0,0.2,0,0.4,0,0.6c0,0.2,0,0.4,0,0.6c0,0.2,0,0.4,0,0.6l1.7-0.1v2h-5c0-0.2-0.1-0.5-0.1-0.6c0-0.2,0-0.4,0-0.6
			h0c-0.6,0.6-1.2,1-1.9,1.3c-0.7,0.2-1.3,0.4-2,0.4c-0.6,0-1.1-0.1-1.5-0.3s-0.8-0.4-1.1-0.7c-0.3-0.3-0.5-0.7-0.7-1.1
			c-0.2-0.4-0.2-0.9-0.2-1.4c0-0.6,0.1-1.1,0.3-1.5c0.2-0.4,0.5-0.8,0.8-1.2c0.3-0.4,0.8-0.7,1.2-0.9c0.5-0.3,1-0.5,1.5-0.6
			c0.5-0.2,1.1-0.3,1.7-0.4c0.6-0.1,1.2-0.2,1.8-0.2v-1.4c0-0.4,0-0.7-0.1-1s-0.2-0.6-0.3-0.8c-0.1-0.2-0.3-0.4-0.6-0.5
			c-0.2-0.1-0.5-0.2-0.9-0.2c-0.4,0-0.7,0.1-1,0.2s-0.6,0.3-0.8,0.5c0.1,0.1,0.2,0.3,0.3,0.5c0,0.2,0.1,0.3,0.1,0.5
			c0,0.2,0,0.4-0.1,0.6c-0.1,0.2-0.2,0.4-0.3,0.5c-0.1,0.2-0.3,0.3-0.6,0.4c-0.2,0.1-0.5,0.2-0.8,0.2c-0.3,0-0.5-0.1-0.7-0.2
			c-0.2-0.1-0.4-0.2-0.5-0.4c-0.1-0.2-0.2-0.3-0.3-0.6C42.8,11.4,42.8,11.1,42.8,10.9z M49.6,15c-0.5,0.1-1,0.1-1.4,0.3
			c-0.4,0.1-0.8,0.3-1.1,0.5s-0.6,0.5-0.8,0.8c-0.2,0.3-0.3,0.6-0.3,1c0,0.3,0.1,0.5,0.1,0.6c0.1,0.2,0.2,0.3,0.3,0.4
			c0.1,0.1,0.3,0.2,0.5,0.2c0.2,0.1,0.4,0.1,0.5,0.1c0.4,0,0.8-0.1,1.2-0.3c0.4-0.2,0.7-0.4,0.9-0.7L49.6,15z"/>
	</g>
	<g>
		<circle cx="23.3" cy="1.9" r="1.9"/>
	</g>
</g>
</svg>
