<?xml version="1.0" encoding="utf-8"?>
<!-- Generator: Adobe Illustrator 18.0.0, SVG Export Plug-In . SVG Version: 6.00 Build 0)  -->
<!DOCTYPE svg PUBLIC "-//W3C//DTD SVG 1.1//EN" "http://www.w3.org/Graphics/SVG/1.1/DTD/svg11.dtd">
<svg version="1.1" id="Layer_1" xmlns="http://www.w3.org/2000/svg" xmlns:xlink="http://www.w3.org/1999/xlink" x="0px" y="0px"
	 viewBox="0 0 97.4 19.1" enable-background="new 0 0 97.4 19.1" xml:space="preserve">
<g>
	<g>
		<path d="M16.5,17.7c-0.1-0.3-0.3-0.5-0.6-0.5c-0.4,0-1,0.2-1.8,0.6c-1.7,0.8-3.2,1.3-4.4,1.3c-2.1,0-3.9-0.4-5.4-1.1
			c-1.5-0.7-2.5-1.8-3.3-3.2C0.4,13.4,0,11.7,0,9.7c0-1.9,0.4-3.6,1.3-5.1c0.9-1.5,2-2.6,3.6-3.4C6.4,0.4,8.1,0,10.1,0
			c1.1,0,82.6,0.1,83.4,0.4c0.8,0.3,1.5,0.7,2.2,1.2c0.2,0.2,0.3,0.2,0.5,0.2c0.2,0,0.3-0.1,0.4-0.4c0.1-0.2,0.2-0.6,0.2-1.2h0.6
			c-0.1,1.2-0.1,3.4-0.1,6.5h-0.6c-0.1-0.9-0.2-1.7-0.4-2.3c-0.2-0.6-0.4-1.2-0.7-1.7c-0.3-0.5-0.8-0.9-1.3-1.3
			C93.9,1.3,93.5,1.2,93,1S11.6,0.8,11.1,0.8c-1.2,0-2.2,0.4-3,1.3C7.3,3,6.8,4.1,6.5,5.4C6.1,6.8,6,8.2,6,9.6c0,3,0.4,5.3,1.1,6.8
			c0.7,1.5,1.8,2.2,3.1,2.2c0.5,0,1-0.1,1.3-0.3C11.8,18,12,17.6,12,17v-2.6c0-0.9-0.1-1.5-0.2-1.9c-0.1-0.4-0.4-0.7-0.7-0.8
			c-0.4-0.2-0.9-0.2-1.7-0.3v-0.5c1.1,0.1,2.7,0.1,5,0.1c1.8,0,3.2,0,4-0.1v0.5c-0.3,0-0.6,0.1-0.7,0.2c-0.1,0.1-0.2,0.3-0.3,0.6
			c-0.1,0.3-0.1,0.8-0.1,1.4v5.2h-0.5C16.7,18.4,16.6,18.1,16.5,17.7z"/>
	</g>
	<g>
		<path d="M25.8,6.1c-0.3-0.4-0.8-0.7-1.5-0.7c-0.2,0-0.5,0-0.7,0.1c-0.2,0.1-0.5,0.2-0.7,0.3c1.2,0.4,1.7,1.2,1.7,2.3
			c0,0.4-0.1,0.8-0.3,1.1c-0.2,0.3-0.5,0.6-0.9,0.8c-0.4,0.2-0.8,0.3-1.3,0.3c-0.4,0-0.8-0.1-1.1-0.3c-0.3-0.2-0.6-0.5-0.7-0.8
			C20.1,8.9,20,8.6,20,8.1c0-0.5,0.1-1,0.4-1.4c0.3-0.4,0.7-0.7,1.2-1c1.1-0.6,2.5-0.8,4.2-0.8c1,0,1.8,0.1,2.5,0.3
			c0.7,0.2,1.3,0.5,1.7,1c0.3,0.4,0.6,0.8,0.7,1.4c0.1,0.5,0.2,1.3,0.2,2.3v7c0,0.4,0,0.7,0.1,0.9c0.1,0.2,0.2,0.2,0.3,0.2
			c0.1,0,0.3,0,0.4-0.1c0.1-0.1,0.3-0.2,0.4-0.3l0.3,0.4c-0.4,0.3-0.9,0.6-1.4,0.7c-0.5,0.1-1.2,0.2-2,0.2c-0.9,0-1.6-0.2-2-0.6
			c-0.4-0.4-0.6-0.8-0.7-1.4c-0.4,0.6-0.9,1.1-1.5,1.4c-0.7,0.4-1.4,0.5-2.2,0.5c-1,0-1.8-0.3-2.4-0.8c-0.6-0.5-0.9-1.3-0.9-2.2
			c0-0.9,0.3-1.6,0.8-2.2c0.5-0.6,1.4-1.1,2.5-1.4c0.9-0.3,1.6-0.6,2-0.8c0.4-0.2,0.8-0.4,1.1-0.7c0.3-0.3,0.5-0.6,0.5-0.9V7.6
			C26.2,7,26,6.5,25.8,6.1z M25.2,12.1c-0.8,0.8-1.3,1.8-1.3,2.9c0,1.2,0.4,1.8,1.3,1.8c0.4,0,0.7-0.1,1-0.4v-5.5
			C26.1,11.2,25.7,11.5,25.2,12.1z"/>
	</g>
	<g>
		<path d="M54.7,17.5c0.1,0.3,0.2,0.5,0.5,0.6c0.2,0.1,0.5,0.2,0.9,0.2v0.5c-1.9-0.1-3.1-0.1-3.6-0.1c-0.5,0-1.7,0-3.4,0.1v-0.5
			c0.2,0,0.4-0.1,0.6-0.2c0.1-0.1,0.2-0.3,0.3-0.6c0.1-0.3,0.1-0.6,0.1-1.1V7.9c0-0.6-0.1-1-0.3-1.2c-0.2-0.3-0.5-0.4-1-0.4
			c-0.3,0-0.6,0.1-0.9,0.3c-0.3,0.2-0.5,0.4-0.7,0.7c-0.2,0.3-0.3,0.6-0.3,0.9c0,0.3,0,0.7,0,1.1v7c0,0.5,0,0.9,0.1,1.1
			c0.1,0.3,0.2,0.5,0.4,0.6c0.2,0.1,0.4,0.2,0.7,0.2v0.5c-1.8-0.1-2.9-0.1-3.4-0.1c-0.6,0-1.7,0-3.4,0.1v-0.5c0.2,0,0.4-0.1,0.5-0.2
			c0.1-0.1,0.2-0.3,0.3-0.6c0.1-0.3,0.1-0.6,0.1-1.1V7.9c0-0.6-0.1-1-0.2-1.2c-0.2-0.3-0.4-0.4-0.8-0.4c-0.3,0-0.6,0.1-0.9,0.2
			c-0.3,0.2-0.5,0.4-0.7,0.7c-0.2,0.3-0.3,0.6-0.3,1v8.2c0,0.5,0,0.9,0.1,1.1c0.1,0.3,0.2,0.5,0.3,0.6c0.1,0.1,0.3,0.2,0.6,0.2v0.5
			c-1.6-0.1-2.6-0.1-3.2-0.1c-0.6,0-1.9,0-3.9,0.1v-0.5c0.4,0,0.7-0.1,0.9-0.2c0.2-0.1,0.4-0.3,0.5-0.6c0.1-0.3,0.1-0.6,0.1-1.1V8.1
			c0-0.8-0.1-1.4-0.3-1.7C33.9,6,33.6,5.8,33,5.8V5.3c0.5,0.1,1.1,0.1,1.6,0.1c1.8,0,3.3-0.1,4.5-0.4v1.9c0.7-1.3,2-2,3.9-2
			c1.4,0,2.4,0.3,2.9,1c0.3,0.3,0.4,0.7,0.6,1.2c0.4-0.8,1-1.4,1.8-1.8c0.7-0.3,1.6-0.5,2.6-0.5c1.4,0,2.4,0.3,2.9,1
			c0.3,0.3,0.5,0.7,0.6,1.3c0.1,0.5,0.2,1.2,0.2,2.1v7C54.6,16.8,54.6,17.2,54.7,17.5z"/>
	</g>
	<g>
		<path d="M78.5,17.5c0.1,0.3,0.2,0.5,0.5,0.6c0.2,0.1,0.5,0.2,0.9,0.2v0.5c-1.9-0.1-3.1-0.1-3.6-0.1c-0.5,0-1.7,0-3.4,0.1v-0.5
			c0.2,0,0.4-0.1,0.6-0.2c0.1-0.1,0.2-0.3,0.3-0.6c0.1-0.3,0.1-0.6,0.1-1.1V7.9c0-0.6-0.1-1-0.3-1.2c-0.2-0.3-0.5-0.4-1-0.4
			c-0.3,0-0.6,0.1-0.9,0.3c-0.3,0.2-0.5,0.4-0.7,0.7c-0.2,0.3-0.3,0.6-0.3,0.9c0,0.3,0,0.7,0,1.1v7c0,0.5,0,0.9,0.1,1.1
			c0.1,0.3,0.2,0.5,0.4,0.6c0.2,0.1,0.4,0.2,0.7,0.2v0.5c-1.8-0.1-2.9-0.1-3.4-0.1c-0.6,0-1.7,0-3.4,0.1v-0.5c0.2,0,0.4-0.1,0.5-0.2
			c0.1-0.1,0.2-0.3,0.3-0.6c0.1-0.3,0.1-0.6,0.1-1.1V7.9c0-0.6-0.1-1-0.2-1.2c-0.2-0.3-0.4-0.4-0.8-0.4c-0.3,0-0.6,0.1-0.9,0.2
			c-0.3,0.2-0.5,0.4-0.7,0.7c-0.2,0.3-0.3,0.6-0.3,1v8.2c0,0.5,0,0.9,0.1,1.1c0.1,0.3,0.2,0.5,0.3,0.6c0.1,0.1,0.3,0.2,0.6,0.2v0.5
			c-1.6-0.1-2.6-0.1-3.2-0.1c-0.6,0-1.9,0-3.9,0.1v-0.5c0.4,0,0.7-0.1,0.9-0.2c0.2-0.1,0.4-0.3,0.5-0.6c0.1-0.3,0.1-0.6,0.1-1.1V8.1
			c0-0.8-0.1-1.4-0.3-1.7c-0.2-0.4-0.6-0.5-1.1-0.5V5.3c0.5,0.1,1.1,0.1,1.6,0.1c1.8,0,3.3-0.1,4.5-0.4v1.9c0.7-1.3,2-2,3.9-2
			c1.4,0,2.4,0.3,2.9,1c0.3,0.3,0.4,0.7,0.6,1.2c0.4-0.8,1-1.4,1.8-1.8c0.7-0.3,1.6-0.5,2.6-0.5c1.4,0,2.4,0.3,2.9,1
			c0.3,0.3,0.5,0.7,0.6,1.3c0.1,0.5,0.2,1.2,0.2,2.1v7C78.4,16.8,78.4,17.2,78.5,17.5z"/>
	</g>
	<g>
		<path d="M87.2,6.1c-0.3-0.4-0.8-0.7-1.5-0.7c-0.2,0-0.5,0-0.7,0.1c-0.2,0.1-0.5,0.2-0.7,0.3C85.4,6.3,86,7.1,86,8.2
			c0,0.4-0.1,0.8-0.3,1.1c-0.2,0.3-0.5,0.6-0.9,0.8c-0.4,0.2-0.8,0.3-1.3,0.3c-0.4,0-0.8-0.1-1.1-0.3c-0.3-0.2-0.6-0.5-0.7-0.8
			c-0.2-0.3-0.3-0.7-0.3-1.2c0-0.5,0.1-1,0.4-1.4c0.3-0.4,0.7-0.7,1.2-1c1.1-0.6,2.5-0.8,4.2-0.8c1,0,1.8,0.1,2.5,0.3
			c0.7,0.2,1.3,0.5,1.7,1C91.7,6.6,92,7,92.1,7.6c0.1,0.5,0.2,1.3,0.2,2.3v7c0,0.4,0,0.7,0.1,0.9c0.1,0.2,0.2,0.2,0.3,0.2
			c0.1,0,0.3,0,0.4-0.1c0.1-0.1,0.3-0.2,0.4-0.3l0.3,0.4c-0.4,0.3-0.9,0.6-1.4,0.7c-0.5,0.1-1.2,0.2-2,0.2c-0.9,0-1.6-0.2-2-0.6
			c-0.4-0.4-0.6-0.8-0.7-1.4c-0.4,0.6-0.9,1.1-1.5,1.4c-0.7,0.4-1.4,0.5-2.2,0.5c-1,0-1.8-0.3-2.4-0.8c-0.6-0.5-0.9-1.3-0.9-2.2
			c0-0.9,0.3-1.6,0.8-2.2c0.5-0.6,1.4-1.1,2.5-1.4c0.9-0.3,1.6-0.6,2-0.8c0.4-0.2,0.8-0.4,1.1-0.7c0.3-0.3,0.5-0.6,0.5-0.9V7.6
			C87.6,7,87.4,6.5,87.2,6.1z M86.6,12.1c-0.8,0.8-1.3,1.8-1.3,2.9c0,1.2,0.4,1.8,1.3,1.8c0.4,0,0.7-0.1,1-0.4v-5.5
			C87.4,11.2,87.1,11.5,86.6,12.1z"/>
	</g>
</g>
</svg>
