<?xml version="1.0" encoding="utf-8"?>
<!-- Generator: Adobe Illustrator 18.0.0, SVG Export Plug-In . SVG Version: 6.00 Build 0)  -->
<!DOCTYPE svg PUBLIC "-//W3C//DTD SVG 1.1//EN" "http://www.w3.org/Graphics/SVG/1.1/DTD/svg11.dtd">
<svg version="1.1" id="Layer_1" xmlns="http://www.w3.org/2000/svg" xmlns:xlink="http://www.w3.org/1999/xlink" x="0px" y="0px"
	 viewBox="0 0 120 21" enable-background="new 0 0 120 21" xml:space="preserve">
<g>
	<g>
		<path d="M45.2,19.3l-1.4-3.3h-6.4L36,19.3h-3.6L39,4.1h3.3l6.6,15.2H45.2z M40.6,8.7l-1.9,4.4h3.8L40.6,8.7z"/>
		<path d="M52.8,19.3V4.1h3.4v12.2h6.5v3H52.8z"/>
		<path d="M77.8,5.5c1.1,0.9,1.6,2.3,1.6,4.2c0,1.9-0.5,3.3-1.6,4.1c-1.1,0.9-2.8,1.3-5,1.3h-2v4.2h-3.4V4.1h5.4
			C75,4.1,76.7,4.6,77.8,5.5z M75.3,11.5c0.4-0.5,0.6-1.1,0.6-2c0-0.9-0.3-1.5-0.8-1.9c-0.5-0.4-1.4-0.6-2.5-0.6h-1.9v5.1H73
			C74.1,12.2,74.9,11.9,75.3,11.5z"/>
		<path d="M93.6,4.1H97v15.2h-3.4v-6h-6v6h-3.4V4.1h3.4v6.4h6V4.1z"/>
		<path d="M113.8,19.3l-1.4-3.3H106l-1.4,3.3h-3.6l6.6-15.2h3.3l6.6,15.2H113.8z M109.2,8.7l-1.9,4.4h3.8L109.2,8.7z"/>
	</g>
	<g>
		<polygon points="15.6,11.1 21.3,21 24.3,21 12.2,0 0,21 9.8,21 		"/>
	</g>
</g>
</svg>
