<?xml version="1.0" encoding="utf-8"?>
<!-- Generator: Adobe Illustrator 18.0.0, SVG Export Plug-In . SVG Version: 6.00 Build 0)  -->
<!DOCTYPE svg PUBLIC "-//W3C//DTD SVG 1.1//EN" "http://www.w3.org/Graphics/SVG/1.1/DTD/svg11.dtd">
<svg version="1.1" id="Layer_1" xmlns="http://www.w3.org/2000/svg" xmlns:xlink="http://www.w3.org/1999/xlink" x="0px" y="0px"
	 viewBox="0 0 47.8 23.4" enable-background="new 0 0 47.8 23.4" xml:space="preserve">
<g>
	<g>
		<path d="M13,16.7c0-0.2,0-0.4-0.1-0.6c-0.9-4.7-1.7-9.3-2.3-14.1c-0.2-1.8-2.9-1-2.7,0.7c0.5,3.6,1.1,7.2,1.7,10.7
			c-1.5-1-3-1.9-4.4-3c-0.8-0.6-2-0.5-2.3,0.6c-0.9,3.2-1.9,6.3-2.8,9.5c-0.2,0.7,0.2,1.5,1,1.7c2.7,0.6,5.4,1,8.1,1.1
			c1.8,0.1,1.8-2.7,0-2.8c-2-0.1-4-0.3-6-0.7c0.6-2.1,1.2-4.1,1.8-6.2c1.8,1.2,3.7,2.3,5.3,3.7c0.2,1.2,0.5,2.5,0.7,3.7
			c0.4,1.8,3,1,2.7-0.7C13.4,19.1,13.2,17.9,13,16.7z"/>
	</g>
	<g>
		<path d="M23.9,9.1c-0.1-0.1-0.2-0.3-0.4-0.4c-0.9-0.7-1.8-1.5-2.6-2.3c-0.5-0.6-1.4-0.5-2,0c0,0-0.1,0.1-0.1,0.1
			c-0.2,0-0.5,0.1-0.7,0.2c-2,1.2-3.7,2.8-4.9,4.8c-1,1.5,1.4,2.9,2.4,1.4c1-1.6,2.3-2.8,3.9-3.8c0,0,0.1-0.1,0.1-0.1
			c0.5,0.5,1,0.9,1.5,1.3c-2.4,1.4-4.6,2.9-6.7,4.7c-0.7,0.6-0.5,1.5,0.1,1.9c-0.1,0.5,0.1,0.9,0.7,1.2c2,1,4.1,1.9,6.2,2.7
			c1.7,0.6,2.4-2.1,0.7-2.7c-1.6-0.6-3.2-1.2-4.8-2c2.2-1.8,4.6-3.3,7.2-4.6C25.9,11,25.1,9.2,23.9,9.1z"/>
	</g>
	<g>
		<path d="M32.5,19.5c-1.5-0.1-2.9-0.3-4.4-0.4c0.1-5.9,0.6-11.9,1.3-17.7c0.2-1.8-2.5-1.7-2.8,0c-0.8,6.2-1.3,12.4-1.3,18.7
			c0,0.3,0.1,0.5,0.2,0.7c0.2,0.5,0.6,0.9,1.2,1c1.9,0.2,3.8,0.4,5.8,0.6C34.3,22.4,34.3,19.7,32.5,19.5z"/>
	</g>
	<g>
		<path d="M32.8,16.7c0.2-2,0.4-3.9,0.6-5.9c1,0.2,2,0.4,3,0.6c1.7,0.3,2.5-2.3,0.7-2.7C36,8.4,34.9,8.2,33.7,8
			c0.1-1.3,0.3-2.6,0.4-3.9c0.2-1.8-2.6-1.8-2.8,0c-0.4,4.2-0.9,8.4-1.3,12.6C29.8,18.4,32.6,18.4,32.8,16.7z"/>
	</g>
	<g>
		<path d="M46.4,17.2c-0.8,0-1.6,0-2.4,0.1c-0.8-2.2-1.4-4.5-1.8-6.8c-0.2-1-1.2-1.2-2-0.8c-0.3,0.1-0.6,0.3-0.8,0.6
			c-2.2,3.3-2.3,7.4-4.5,10.7c-1,1.5,1.4,2.9,2.4,1.4c0.5-0.7,0.8-1.4,1.2-2.1c1.2,0,2.5-0.1,3.7-0.1c0.3,0.9,0.7,1.8,1.1,2.6
			c0.7,1.6,3.1,0.2,2.4-1.4c-0.2-0.4-0.4-0.9-0.6-1.3c0.4,0,0.9,0,1.3,0C48.2,19.9,48.2,17.1,46.4,17.2z M39.5,17.4
			c0.3-0.9,0.6-1.8,0.9-2.7c0.2,0.9,0.5,1.8,0.8,2.7C40.6,17.3,40.1,17.3,39.5,17.4z"/>
	</g>
	<g>
		<path d="M38.2,7c1.8,0.2,3.6,0.1,5.4,0.2c1.8,0.1,1.8-2.7,0-2.8c-1.8-0.1-3.6,0-5.4-0.2c-0.8-0.1-1.4,0.7-1.4,1.4
			C36.8,6.5,37.5,6.9,38.2,7z"/>
	</g>
</g>
</svg>
