<?xml version="1.0" encoding="utf-8"?>
<!-- Generator: Adobe Illustrator 18.0.0, SVG Export Plug-In . SVG Version: 6.00 Build 0)  -->
<!DOCTYPE svg PUBLIC "-//W3C//DTD SVG 1.1//EN" "http://www.w3.org/Graphics/SVG/1.1/DTD/svg11.dtd">
<svg version="1.1" id="Layer_1" xmlns="http://www.w3.org/2000/svg" xmlns:xlink="http://www.w3.org/1999/xlink" x="0px" y="0px"
	 viewBox="0 0 79.1 18.6" enable-background="new 0 0 79.1 18.6" xml:space="preserve">
<g>
	<g>
		<path d="M8.8,12.8h6.9v5.9H0v-0.1v-5.8l6.7-6.9H0.5V0h14.9v5.9L8.8,12.8z"/>
	</g>
	<g>
		<path d="M28.2,13.3h8v5.3H21.3V0h14.4v5.3h-7.5v1.3h6.9V12h-6.9V13.3z"/>
	</g>
	<g>
		<path d="M57.3,0v6.1h-5.1v12.5h-6.9V6.1h-5.1V0H57.3z"/>
	</g>
	<g>
		<path d="M79.1,18.6h-7.7L70.8,16h-3.5l-0.5,2.7h-7.7L64.6,0h9.1C73.7,0.1,79.1,18.6,79.1,18.6z M70,11.7l-0.9-4.8l-0.9,4.8H70z"/>
	</g>
</g>
</svg>
