<?xml version="1.0" encoding="utf-8"?>
<!-- Generator: Adobe Illustrator 19.2.0, SVG Export Plug-In . SVG Version: 6.00 Build 0)  -->
<svg version="1.1" id="Layer_1" xmlns="http://www.w3.org/2000/svg" xmlns:xlink="http://www.w3.org/1999/xlink" x="0px" y="0px"
	 viewBox="0 0 270 272.4" style="enable-background:new 0 0 270 272.4;" xml:space="preserve">
<style type="text/css">
	.st0{fill:#FFFFFF;}
</style>
<g id="XMLID_210_">
	<g id="XMLID_227_">
		<path id="XMLID_235_" class="st0" d="M250.6,103.2c-3.1,0-6-2-6.9-5.1c-5.6-19-15.4-35.9-29.3-50.2
			c-11.8-12.2-25.7-21.7-41.4-28.1c-3.7-1.5-5.4-5.7-3.9-9.4c1.5-3.7,5.7-5.4,9.4-3.9c17.5,7.2,33,17.7,46.2,31.4
			C240,53.6,251.4,73,257.5,94c1.1,3.8-1.1,7.8-4.9,8.9C252,103.1,251.3,103.2,250.6,103.2z"/>
	</g>
	<g id="XMLID_226_">
		<path id="XMLID_233_" class="st0" d="M221.3,228.1c-1.8,0-3.5-0.6-4.9-1.9c-2.9-2.7-3.1-7.2-0.4-10.1c18-19.3,29.1-43.5,32-69.8
			c0.4-3.9,4-6.8,7.9-6.3c3.9,0.4,6.8,4,6.3,7.9c-3.2,29.4-15.6,56.4-35.8,78C225.1,227.4,223.2,228.1,221.3,228.1z"/>
	</g>
	<g id="XMLID_225_">
		<path id="XMLID_232_" class="st0" d="M209.6,174.2c-0.9,0-1.8-0.2-2.7-0.5c-3.7-1.5-5.5-5.6-4-9.3c13.9-34.5,2.5-74.1-27.5-96.1
			c-3.1-2.3-6.3-4.3-9.7-6.1c-3.5-1.9-4.8-6.2-2.9-9.7c1.9-3.5,6.2-4.8,9.7-2.9c3.9,2.1,7.7,4.5,11.4,7.2
			c35.3,25.9,48.6,72.4,32.4,113C215.1,172.5,212.4,174.2,209.6,174.2z"/>
	</g>
	<g id="XMLID_223_">
		<path id="XMLID_230_" class="st0" d="M69.3,255.6c-1.1,0-2.2-0.2-3.2-0.7c-14-6.9-26.6-16.1-37.5-27.4
			c-6.3-6.5-11.9-13.6-16.7-21.1c-2.1-3.3-1.2-7.8,2.1-9.9c3.3-2.1,7.8-1.2,9.9,2.1c4.3,6.7,9.4,13.1,15,18.9
			c9.7,10.1,21,18.3,33.5,24.5c3.5,1.8,5,6.1,3.2,9.6C74.5,254.1,71.9,255.6,69.3,255.6z"/>
	</g>
	<g id="XMLID_221_">
		<path id="XMLID_209_" class="st0" d="M127,267.1c-2.6,0-5.2-0.1-7.8-0.2c-4-0.2-7-3.6-6.8-7.6c0.2-4,3.6-7,7.6-6.8
			c14.3,0.8,28.4-0.9,42.1-4.9c3.8-1.1,7.8,1,8.9,4.8c1.1,3.8-1,7.8-4.8,8.9C153.4,265.2,140.3,267.1,127,267.1z"/>
	</g>
	<g id="XMLID_217_">
		<path id="XMLID_208_" class="st0" d="M127.3,229.8c-19.9,0-39.8-6.2-56.8-18.6c-9.7-7.1-17.8-15.8-24.2-25.9
			c-2.1-3.3-1.1-7.8,2.2-9.9c3.3-2.1,7.8-1.1,9.9,2.2c5.4,8.6,12.4,16,20.6,22c30,22,71.1,21,99.9-2.6c3.1-2.5,7.6-2.1,10.1,1
			c2.5,3.1,2.1,7.6-1,10.1C170.5,222.5,148.9,229.8,127.3,229.8z"/>
	</g>
</g>
<g id="XMLID_207_">
	<path id="XMLID_206_" class="st0" d="M169.6,165.1c-18,23.6-51.7,28.1-75.3,10.1c-20.4-15.6-48.7-89.1-48.7-89.1
		c-2.3-6-1.8-6.2,1.2-0.5c0,0,9.8,18.9,17,24.4c10.6,8.1,25.8,6.1,33.9-4.5c8.1-10.6,6.1-25.8-4.5-33.9
		c-6.9-5.2-24.6-11.3-24.6-11.3c-6-2.1-5.9-2.6,0.4-1.2c0,0,70.7,15.8,90.5,30.9C183.1,107.9,187.6,141.6,169.6,165.1z"/>
</g>
</svg>
